# xmcd
#
# Track frame offsets:
#	150
#	17400
#	33000
#	47325
#	60900
#	77325
#	94050
#	110700
#	125175
#	139050
#	152775
#	170025
#	185625
#	199950
#	213525
#	229950
#	246675
#	263325
#	277800
#	291675
#	305400
#
# Disc length: 4304 seconds
#
# Revision: 1
# Processed by: cddbd v1.5.1PL2 Copyright (c) Steve Scherf et al.
# Submitted via: audiograbber 1.83.01
#
DISCID=3010ce15
DTITLE=Top Hits Monthly Country  - Thmc9706
DYEAR=1997
DGENRE=Karaoke
TTITLE0=Tim Mcgraw/faith Hill - It's Your Love (Male Solo Vocal)
TTITLE1=Reba Mcentire - I'd Rather Ride Around With You (Vocal)
TTITLE2=Joe Diffie - This Is Your Brain (Vocal)
TTITLE3=Mark Chestnutt - Let It Rain (Vocal)
TTITLE4=Ty Herndon - Loved Too Much (Vocal)
TTITLE5=Rick Trevino - I Only Get This Way With You (Vocal)
TTITLE6=Lee Roy Parnell - Lucky Me, Lucky You (Vocal)
TTITLE7=Terri Clark - Just The Same (Vocal)
TTITLE8=Michael Peterson - Drink, Swear, Steal And Lie (Vocal)
TTITLE9=John Berry - I Will If You Will (Vocal)
TTITLE10=Tim Mcgraw/faith Hill - It's Your Love (Male Solo)
TTITLE11=Reba Mcentire - I'd Rather Ride Around With You
TTITLE12=Joe Diffie - This Is Your Brain
TTITLE13=Mark Chestnutt - Let It Rain
TTITLE14=Ty Herndon - Loved Too Much
TTITLE15=Rick Trevino - I Only Get This Way With You
TTITLE16=Lee Roy Parnell - Lucky Me, Lucky You
TTITLE17=Terri Clark - Just The Same
TTITLE18=Michael Peterson - Drink, Swear, Steal And Lie
TTITLE19=John Berry - I Will If You Will
TTITLE20=Tim Mcgraw/faith Hill - It's Your Love(Duet)
EXTD=
EXTT0=
EXTT1=
EXTT2=
EXTT3=
EXTT4=
EXTT5=
EXTT6=
EXTT7=
EXTT8=
EXTT9=
EXTT10=
EXTT11=
EXTT12=
EXTT13=
EXTT14=
EXTT15=
EXTT16=
EXTT17=
EXTT18=
EXTT19=
EXTT20=
PLAYORDER=
